# xmcd CD database file
#
# Track frame offsets:
#	150
#	19884
#	36069
#	52027
#	66479
#	91291
#	106187
#	125997
#	142026
#	161940
#	175436
#	186535
#	205575
#	217670
#	231714
#
# Disc length: 3257 seconds
#
# Revision: 2
# Processed by: cddbd v1.4b42PL0 Copyright (c) Steve Scherf et al.
# Submitted via: CDex 1.40Beta6
#
DISCID=eb0cb70f
DTITLE=Various Artist - The Winners 7 [CD2]
DYEAR=1999
DGENRE=Country
TTITLE0=John Williamson With Warren H. Williams - Raining on the rock
TTITLE1=Andrew Clermont - The crest of Gilmont
TTITLE2=Beccy Cole - Somebody like you
TTITLE3=The Wolverines - Movin' on down the highway
TTITLE4=Kate Ballantyne - Who's to blame
TTITLE5=Troy Cassar-Daley - Original Australian working man
TTITLE6=Vanya And Elizabeth Lord - Everything's gonna change
TTITLE7=Michael O' Rourke - Mining dust burning sun
TTITLE8=The Flood - Tear stained eye
TTITLE9=Crosby Sisters - Burning desire
TTITLE10=Feral Swing Katz - Curtain call
TTITLE11=Kedron Taylor - The old Holden waltz
TTITLE12=Barry Thornton - Overnight express
TTITLE13=Jeff Brown - The old G.P.
TTITLE14=Brian Letton - Give me Australia
EXTD=
EXTT0=Williamson, John and Williams, Warren H.
EXTT1=Clermont, Andrew
EXTT2=Cole, Beccy
EXTT3=The Wolverines
EXTT4=Ballantyne, Kate
EXTT5=Casser-Daley, Troy
EXTT6=Vanya (duet with Elizabeth Lord)
EXTT7=O'Rourke, Michael
EXTT8=The  Flood
EXTT9=Crosby Sisters, The
EXTT10=Feral Swing Katz
EXTT11=Taylor, Kedron
EXTT12=Thornton, Barry
EXTT13=Brown, Jeff
EXTT14=Letton, Brian
PLAYORDER=
